<svg width="512" height="512" viewBox="0 0 512 512" fill="none" xmlns="http://www.w3.org/2000/svg">
<path d="M128.659 362.449C137.831 362.449 146.156 358.741 152.284 352.71L94.5677 315.989V327.547C94.5677 337.669 98.7765 346.785 105.5 353.16L111.011 356.666L116.522 360.172C120.293 361.643 124.384 362.449 128.659 362.449Z" fill="white"/>
<path d="M418.438 314.825L361.213 353.184C367.291 358.935 375.418 362.449 384.346 362.449C388.682 362.449 392.828 361.621 396.642 360.11L408.546 352.13C414.661 345.822 418.438 337.136 418.438 327.547V314.825Z" fill="white"/>
<path fill-rule="evenodd" clip-rule="evenodd" d="M162.751 178.853V327.547C162.751 337.433 158.736 346.36 152.284 352.71L94.5677 315.989V98.0005C94.5677 66.132 132.086 50.039 154.275 72.3896L256.503 175.361L358.731 72.3896C380.92 50.0393 418.438 66.1316 418.438 98.0005V314.825L361.213 353.184C354.474 346.808 350.255 337.682 350.255 327.547C350.255 317.412 350.255 178.853 350.255 178.853L281.116 248.495C267.458 262.252 245.547 262.251 231.89 248.495L162.751 178.853ZM116.522 360.172L252.853 446.912C257.327 449.758 263.007 449.69 267.413 446.736L396.642 360.11C392.828 361.621 388.682 362.449 384.346 362.449C375.418 362.449 367.291 358.935 361.213 353.184C357.41 355.733 353.768 358.175 350.255 360.53C342.649 365.628 335.651 370.319 328.948 374.812C321.029 380.12 313.522 385.152 305.911 390.255C291.962 399.605 277.662 409.191 259.836 421.14L211.294 390.255L187.022 374.812L162.751 359.37L152.284 352.71C146.156 358.741 137.831 362.449 128.659 362.449C124.384 362.449 120.293 361.643 116.522 360.172Z" fill="white"/>
<path d="M162.751 327.547C162.751 337.433 158.736 346.36 152.284 352.71L162.751 359.37V327.547Z" fill="white"/>
<path d="M361.213 353.184C354.474 346.808 350.255 337.682 350.255 327.547C350.046 338.681 349.754 360.866 350.255 360.53L361.213 353.184Z" fill="white"/>
<path d="M211.294 390.255L259.836 421.14L305.911 390.255H258.602H211.294Z" fill="#881337"/>
</svg>
